<svg id="bcb7c87e-e169-4a9a-8706-c7a1e1ab9b37" data-name="Layer 1" xmlns="http://www.w3.org/2000/svg" width="666.05" height="834.66" viewBox="0 0 666.05 834.66"><path d="M258.11,608.08c-9.58,2.39-16,10.33-15.83,19.52a19.82,19.82,0,0,0,16.83,19.15l92.75.23a43.7,43.7,0,0,1,11.71,5.08c-3.64-14.69-6.42-28.59-10.51-42.18,0-3.47-2.72-2.25-4.38-2.26q-42.57-.11-85.13,0C261.73,607.6,259.92,607.91,258.11,608.08Z" transform="translate(-206.99 -123.11)" fill="#fff"/><path d="M510.8,200.14q-14.07,10.2-28.14,20.41L418.8,267c-13.7-9.43-28.56-13.41-45.29-10.85-31.79,4.86-54.76,37.61-48,69,8.31,38.64,47.73,58.33,83.72,41.79,1.21-.55,2.29-1.4,3.73-1.06,1.19,1.16,2.36,2.34,3.57,3.47q33.11,31,66.2,62c1.59,1.49,3.38,2.46,1.63,5.56-8.65,15.44-16.92,31.1-25.33,46.68-1.83.05-3.66.16-5.49.16q-63,0-125.93,0c-14.69,0-23.52,10.54-20.38,24.5,2.83,12.6,6.24,25.07,9.25,37.63.61,2.55,1.73,3.41,4.39,3.34,7.32-.19,14.66.14,22-.15,3.61-.14,5.2.94,6.06,4.55,12,50.43,24.18,100.8,36.09,151.25,7.78,32.94,31.62,52.51,65.13,52.54q119.94.12,239.87,0c31.48,0,56.35-19,63.75-48.57,5.62-22.48,10.83-45.08,16.22-67.63q10.56-44.22,21.1-88.44c.61-2.56,1.65-3.88,4.7-3.7,5.48.31,11-.08,16.49.15,2.69.12,3.82-.95,4.52-3.34,3.55-12.07,7.18-24.12,10.8-36.18a20.09,20.09,0,0,0-19.64-26.12c-42,.41-83.95.15-125.93.14-2,0-4-.12-6-.17-8.49-15.73-16.87-31.51-25.55-47.12-1.7-3.06-1.19-4.82.9-7.33q29.49-35.37,58.75-70.94c8,2.32,15.94,4.18,24.4,4.05,35.69-.56,63.31-35.31,56.06-70.16a59.73,59.73,0,0,0-64.52-47.06c-32.14,3.23-57.13,35.51-51.56,67.33,1.49,8.49,5.21,16,8.44,23.69l-52.53,63c-6.22-11.6-12.25-23-18.46-34.32-4.22-7.68-12.36-11.15-20.2-8.92-11.78,3.35-16.52,15.25-10.39,26.68q27.12,50.61,54.41,101.11c-18.76.07-37.52.2-56.28.2q-40.11,0-80.2-.18,27.07-50.34,54.14-100.68c5.56-10.35,2.93-20.84-6.36-25.74s-19.23-1.22-24.88,9.22-11.54,20.9-16.88,31.56c-1.95,3.88-3.23,3.61-5.77.85-2.36-2.56-5-4.85-7.58-7.23q-27.54-25.71-55.09-51.41c-.25-2.12,1-3.82,1.66-5.67a58.14,58.14,0,0,0,.56-39L531,229.21c1.28.75,2.59,1.46,3.84,2.26A56.89,56.89,0,0,0,575.44,240c31.94-5.11,54.4-33.66,49.14-67.29-5.3-33.91-37-55.11-70.45-48.31C520.21,131.28,499.06,168.26,510.8,200.14Z" transform="translate(-206.99 -123.11)" fill="#fff"/><path d="M260.11,805.57l55.9.19c.07,15.48.09,31,.21,46.44a42.07,42.07,0,0,0,8,25.21c10.88,14.85,26.36,18,43.43,17,2.12-.11,2.23-1.42,2.37-3,3.9-44,45.15-77.1,90.09-70.92,34.37,4.73,64,34.09,67.64,69.31.44,4.2,1.87,4.71,5.41,4.7,41.82-.1,83.64-.17,125.45.07,5,0,6.71-1.39,7.33-6.27,5.92-46.64,52.58-78,98-66.11,32,8.4,55.12,34.61,59.07,67.24.43,3.58,1.43,4.8,5.47,4.39,33.21-3.45,54.13-41.08,40.13-72.74-5.7-12.9-11.78-25.63-17.7-38.43Q823,722.09,795,661.54a48.55,48.55,0,0,0-16.36-20c-5.37,22.46-10.95,44.12-15.68,66-8,36.86-39.36,58.76-73.54,58.51-80.63-.59-161.27-.15-241.9-.21-33.48,0-61.41-21.86-69.58-54.24-3.11-12.33-6-24.72-9.26-37.93-5,10.59-13.18,13.34-23.59,13.27-39.32-.27-78.64-.12-118,0-8.68,0-14.92,4.21-18.38,12.14s-1.76,15,3.81,21.24c4.23,4.72,9.82,6.52,16.13,6.52q60.72,0,121.45,0a19.35,19.35,0,0,1,19,23.66c-2,9.34-9.49,15.4-19.31,15.42-28.65.06-57.31,0-86,.11-12.17,0-21.17,8.38-21.57,19.67C242,795.54,249.85,804.37,260.11,805.57Z" transform="translate(-206.99 -123.11)" fill="#fff"/><path d="M449.09,957.77a58.63,58.63,0,1,0-59-58.26C390.2,931.76,416.61,957.83,449.09,957.77Z" transform="translate(-206.99 -123.11)" fill="#fff"/><path d="M685.71,899.13a58.69,58.69,0,1,0,58.94-58.62C711.73,840.42,685.73,866.27,685.71,899.13Z" transform="translate(-206.99 -123.11)" fill="#fff"/><path d="M676,483.62c2,.06,4,.17,6,.18,42,0,84,.27,125.93-.14a20.09,20.09,0,0,1,19.64,26.12c-3.62,12.06-7.25,24.11-10.8,36.18-.7,2.39-1.83,3.46-4.52,3.34-5.49-.23-11,.16-16.49-.15-3-.18-4.09,1.14-4.7,3.7q-10.51,44.24-21.1,88.44c-5.39,22.55-10.6,45.15-16.22,67.63-7.4,29.57-32.27,48.53-63.75,48.57q-119.94.13-239.87,0c-33.51,0-57.35-19.6-65.13-52.54C373.08,654.5,360.86,604.13,348.9,553.7c-.86-3.61-2.45-4.69-6.06-4.55-7.32.29-14.66,0-22,.15-2.66.07-3.78-.79-4.39-3.34-3-12.56-6.42-25-9.25-37.63-3.14-14,5.69-24.48,20.38-24.5q63-.1,125.93,0c1.83,0,3.66-.11,5.49-.16,13.42.44,26.84.5,40.27,0q40.09.11,80.2.18c18.76,0,37.52-.13,56.28-.2C649.19,484.16,662.6,484.09,676,483.62ZM479,678.36c-.05-.39-.19-1.54-.4-2.68Q469.32,625.09,460,574.51c-1.46-8-7.91-13.42-14.84-12.19-8.21,1.46-12.46,8.35-10.78,17.15,2.28,11.88,4.44,23.78,6.61,35.67,4,22.16,8,44.34,12.12,66.49,1.26,6.77,7.72,11.53,14.1,10.72C474.06,691.5,479.06,685.88,479,678.36ZM701,576.93c.13-8.39-4.71-13.95-11.83-14.73-6.58-.73-12.78,4.61-14.13,12q-9.18,50.61-18.44,101.21c-1.55,8.46,2.22,15,10,16.61,7.53,1.59,13.87-3.18,15.44-11.62q6.9-37.14,13.78-74.27C697.66,596.06,699.39,585.94,701,576.93Zm-81.9,1.85c0-1.13,0-2.46,0-3.79-.05-8-5.72-13.38-13.68-13-7.22.3-11.9,5.77-12.39,14.16-.72,12.27-1.55,24.53-2.4,36.78-1.52,21.87-3.21,43.72-4.55,65.6-.51,8.33,4.9,14.15,12.44,14.36,7.83.21,13-5.36,13.52-14,.61-11.1,1.46-22.2,2.25-33.3C615.85,623.37,617.47,601.18,619.08,578.78Zm-103.36-3.39c1.21,16.33,2.28,30.24,3.24,44.15,1.41,20.37,2.67,40.76,4.13,61.13a12.9,12.9,0,0,0,13.78,12.17c7-.33,12.17-5.87,12.09-13.19-.05-4.3-.57-8.61-.86-12.91q-3.08-46-6.17-91.94c-.31-4.52-2.06-8.35-6.06-10.86a12.36,12.36,0,0,0-13.23-.51C517.07,566.52,515.11,571.58,515.72,575.39Z" transform="translate(-206.99 -123.11)" fill="#f7a522"/><path d="M260.11,805.57c-10.26-1.2-18.16-10-17.82-19.9.4-11.29,9.4-19.63,21.57-19.67,28.65-.1,57.31,0,86-.11,9.82,0,17.31-6.08,19.31-15.42a19.35,19.35,0,0,0-19-23.66q-60.72-.1-121.45,0c-6.31,0-11.9-1.8-16.13-6.52C207,714,205.34,706.85,208.77,699s9.7-12.12,18.38-12.14c39.31-.09,78.63-.24,118,0,10.41.07,18.62-2.68,23.59-13.27,3.22,13.21,6.15,25.6,9.26,37.93,8.17,32.38,36.1,54.22,69.58,54.24,80.63.06,161.27-.38,241.9.21,34.18.25,65.57-21.65,73.54-58.51,4.73-21.84,10.31-43.5,15.68-66a48.55,48.55,0,0,1,16.36,20q28,60.54,55.92,121.12c5.92,12.8,12,25.53,17.7,38.43,14,31.66-6.92,69.29-40.13,72.74-4,.41-5-.81-5.47-4.39-3.95-32.63-27-58.84-59.07-67.24-45.44-11.92-92.1,19.47-98,66.11-.62,4.88-2.31,6.3-7.33,6.27-41.81-.24-83.63-.17-125.45-.07-3.54,0-5-.5-5.41-4.7-3.65-35.22-33.27-64.58-67.64-69.31-44.94-6.18-86.19,26.94-90.09,70.92-.14,1.61-.25,2.92-2.37,3-17.07.91-32.55-2.19-43.43-17a42.07,42.07,0,0,1-8-25.21c-.12-15.48-.14-31-.21-46.44-.94-1.33-2.36-1-3.65-1h-49C262.22,804.74,261,804.58,260.11,805.57Z" transform="translate(-206.99 -123.11)" fill="#069196"/><path d="M682.94,336.09c-3.23-7.74-7-15.2-8.44-23.69-5.57-31.82,19.42-64.1,51.56-67.33a59.73,59.73,0,0,1,64.52,47.06c7.25,34.85-20.37,69.6-56.06,70.16-8.46.13-16.43-1.73-24.4-4.05-3-1.73-5.87-3.57-8.89-5.18C693.64,349,689,341.83,682.94,336.09Z" transform="translate(-206.99 -123.11)" fill="#059196"/><path d="M413,365.88c-1.44-.34-2.52.51-3.73,1.06-36,16.54-75.41-3.15-83.72-41.79-6.75-31.41,16.22-64.16,48-69,16.73-2.56,31.59,1.42,45.29,10.85,9.33,7.67,16.38,17,20.29,28.49a58.14,58.14,0,0,1-.56,39c-.67,1.85-1.91,3.55-1.66,5.67-6.55,9.7-13.83,18.72-23.77,25.23C413,365.48,413,365.72,413,365.88Z" transform="translate(-206.99 -123.11)" fill="#059196"/><path d="M510.8,200.14c-11.74-31.88,9.41-68.86,43.33-75.76,33.46-6.8,65.15,14.4,70.45,48.31,5.26,33.63-17.2,62.18-49.14,67.29a56.89,56.89,0,0,1-40.59-8.51c-1.25-.8-2.56-1.51-3.84-2.26a26.84,26.84,0,0,0-2.64-2.88A54.09,54.09,0,0,1,510.8,200.14Z" transform="translate(-206.99 -123.11)" fill="#059196"/><path d="M449.09,957.77c-32.48.06-58.89-26-59-58.26a58.92,58.92,0,1,1,59,58.26Zm23.2-58.49a23.29,23.29,0,0,0-23.19-23.57,23.44,23.44,0,1,0-.26,46.87A23.3,23.3,0,0,0,472.29,899.28Z" transform="translate(-206.99 -123.11)" fill="#066980"/><path d="M685.71,899.13c0-32.86,26-58.71,58.94-58.62a58.63,58.63,0,1,1-58.94,58.62Zm58.69,23.45A23.44,23.44,0,1,0,721,899.16,23.62,23.62,0,0,0,744.4,922.58Z" transform="translate(-206.99 -123.11)" fill="#056980"/><path d="M413,365.88c.05-.16,0-.4.15-.47,9.94-6.51,17.22-15.53,23.77-25.23q27.56,25.69,55.09,51.41c2.56,2.38,5.22,4.67,7.58,7.23,2.54,2.76,3.82,3,5.77-.85,5.34-10.66,11.2-21.07,16.88-31.56s15.61-14.12,24.88-9.22,11.92,15.39,6.36,25.74q-27,50.35-54.14,100.68c-13.43.53-26.85.47-40.27,0,8.41-15.58,16.68-31.24,25.33-46.68,1.75-3.1,0-4.07-1.63-5.56q-33.09-31-66.2-62C415.31,368.22,414.14,367,413,365.88Z" transform="translate(-206.99 -123.11)" fill="#066980"/><path d="M682.94,336.09c6,5.74,10.7,12.91,18.29,17,3,1.61,5.93,3.45,8.89,5.18q-29.36,35.49-58.75,70.94c-2.09,2.51-2.6,4.27-.9,7.33,8.68,15.61,17.06,31.39,25.55,47.11-13.42.47-26.83.54-40.25,0q-27.21-50.54-54.41-101.11c-6.13-11.43-1.39-23.33,10.39-26.68,7.84-2.23,16,1.24,20.2,8.92,6.21,11.31,12.24,22.72,18.46,34.32Z" transform="translate(-206.99 -123.11)" fill="#066980"/><path d="M353.06,609.88c4.09,13.59,6.87,27.49,10.51,42.18A43.7,43.7,0,0,0,351.86,647a3.41,3.41,0,0,0,.09-.8,4.35,4.35,0,0,0-1.37-.28H261.85a3.26,3.26,0,0,0-2.74.85,19.82,19.82,0,0,1-16.83-19.15c-.2-9.19,6.25-17.13,15.83-19.52,1.56,1.46,3.48.82,5.24.82q41.37.06,82.73,0A18.52,18.52,0,0,1,353.06,609.88Z" transform="translate(-206.99 -123.11)" fill="#059196"/><path d="M510.8,200.14a54.09,54.09,0,0,0,17.57,26.19,26.84,26.84,0,0,1,2.64,2.88l-91.92,66.26c-3.91-11.53-11-20.82-20.29-28.49l63.86-46.43Q496.71,210.34,510.8,200.14Z" transform="translate(-206.99 -123.11)" fill="#056980"/><path d="M353.06,609.88a18.52,18.52,0,0,0-7-1q-41.35.06-82.73,0c-1.76,0-3.68.64-5.24-.82,1.81-.17,3.62-.48,5.44-.49q42.57,0,85.13,0C350.34,607.63,353,606.41,353.06,609.88Z" transform="translate(-206.99 -123.11)" fill="#08858b"/><path d="M259.11,646.75a3.26,3.26,0,0,1,2.74-.85h88.73a4.35,4.35,0,0,1,1.37.28,3.41,3.41,0,0,1-.09.8Z" transform="translate(-206.99 -123.11)" fill="#048288"/><path d="M260.11,805.57c.91-1,2.11-.83,3.27-.83h49c1.29,0,2.71-.32,3.65,1Z" transform="translate(-206.99 -123.11)" fill="#008187"/></svg>